<?xml version="1.0" standalone="no"?>
<!DOCTYPE svg PUBLIC "-//W3C//DTD SVG 20010904//EN"
 "http://www.w3.org/TR/2001/REC-SVG-20010904/DTD/svg10.dtd">
<svg version="1.0" xmlns="http://www.w3.org/2000/svg"
 width="300.000000pt" height="200.000000pt" viewBox="0 0 300.000000 200.000000"
 preserveAspectRatio="xMidYMid meet">
<metadata>
Created by potrace 1.10, written by Peter Selinger 2001-2011
</metadata>
<g transform="translate(0.000000,200.000000) scale(0.100000,-0.100000)"
fill="#000000" stroke="none">
<path d="M2221 1659 c-161 -32 -230 -185 -134 -300 32 -38 65 -55 176 -89 49
-16 100 -38 113 -51 27 -25 32 -73 10 -101 -38 -51 -159 -62 -269 -24 -78 26
-94 19 -83 -38 6 -31 12 -37 64 -56 159 -60 339 -22 399 85 44 78 20 191 -49
233 -18 11 -78 34 -133 52 -100 33 -155 70 -155 104 0 31 23 65 54 78 44 18
152 15 209 -7 58 -22 73 -13 63 38 -8 42 -41 61 -136 76 -72 12 -68 12 -129 0z
m142 -41 c9 0 17 -3 17 -9 0 -5 -32 -9 -70 -9 -81 0 -128 -16 -158 -55 -45
-56 -15 -140 60 -174 24 -11 79 -32 123 -47 108 -37 145 -74 145 -148 0 -45
-5 -58 -35 -93 -19 -23 -52 -47 -73 -55 -46 -16 -220 -15 -250 1 -39 21 -23
28 30 15 104 -27 192 -12 245 41 28 28 33 40 33 79 0 67 -39 102 -166 145
-116 40 -151 62 -170 107 -28 66 -7 129 58 177 28 21 136 39 173 29 11 -3 28
-5 38 -4z"/>
<path d="M607 1640 c-75 -24 -87 -35 -87 -81 0 -46 4 -47 85 -19 67 23 186 27
225 7 37 -18 60 -72 60 -139 l0 -58 -27 11 c-41 16 -201 16 -246 1 -84 -30
-137 -105 -137 -193 0 -117 76 -192 194 -193 75 0 124 16 182 61 25 19 47 33
47 31 37 -77 58 -89 105 -61 41 23 43 35 18 98 -11 30 -15 81 -16 203 0 90 -5
184 -12 209 -14 57 -68 114 -124 131 -61 18 -199 14 -267 -8z m280 -41 c69
-33 83 -75 84 -250 0 -130 4 -175 25 -276 9 -44 -16 -44 -65 0 l-37 33 18 50
c23 65 22 96 -3 128 l-22 28 22 38 c39 69 11 181 -57 226 -21 15 -46 19 -112
19 -47 0 -102 -3 -123 -7 -56 -10 -36 7 25 20 29 7 62 14 73 16 37 8 130 -5
172 -25z m-197 -269 c0 -5 -6 -10 -13 -10 -26 0 -87 -61 -98 -100 -30 -98 37
-188 143 -191 l33 -1 -35 -9 c-77 -20 -153 10 -185 71 -19 37 -19 113 0 153
17 37 70 76 117 87 18 4 34 8 36 9 1 1 2 -3 2 -9z m163 -46 c36 -7 37 -7 37
-51 0 -94 -56 -151 -157 -160 -53 -5 -62 -3 -91 22 -28 23 -32 33 -32 75 0 51
25 94 64 110 25 10 126 12 179 4z"/>
<path d="M1086 1641 c-6 -9 181 -631 193 -644 5 -4 35 -7 67 -5 l59 3 31 125
c17 69 44 182 60 252 16 71 32 128 35 128 3 0 12 -30 19 -67 7 -38 33 -151 59
-253 l46 -185 59 -3 c32 -2 62 1 67 5 14 14 200 625 195 639 -12 31 -125 10
-126 -24 0 -4 -29 -119 -65 -257 -43 -168 -65 -241 -69 -225 -78 337 -117 494
-127 506 -14 18 -102 19 -117 2 -10 -13 -122 -474 -122 -505 0 -43 -18 16 -75
248 -35 139 -69 255 -76 260 -18 11 -106 12 -113 0z m87 -46 c8 -8 33 -90 56
-182 65 -264 80 -303 118 -303 21 0 52 60 59 113 4 26 11 50 15 53 11 6 11 -1
-1 -51 -5 -22 -12 -56 -15 -75 -15 -92 -31 -120 -66 -120 -30 0 -50 26 -63 85
-4 17 -29 102 -56 190 -28 88 -59 189 -70 224 -10 35 -17 68 -14 73 8 12 21
10 37 -7z m384 7 c11 -7 26 -61 53 -187 7 -33 19 -82 25 -110 7 -27 11 -52 9
-54 -8 -8 -16 8 -18 33 0 14 -4 26 -7 26 -3 0 -14 38 -24 85 -13 59 -26 92
-42 107 -22 21 -23 21 -43 3 -11 -10 -30 -49 -41 -87 -12 -38 -23 -67 -25 -65
-7 7 45 229 57 243 12 15 37 18 56 6z m368 -32 c-4 -17 -24 -83 -45 -148 -20
-64 -52 -164 -69 -222 -48 -160 -55 -172 -93 -168 -34 3 -40 15 -71 146 -18
76 -1 81 20 6 8 -27 23 -58 34 -69 20 -20 20 -20 42 5 26 30 30 43 92 285 26
99 49 183 52 188 2 4 13 7 24 7 18 0 20 -4 14 -30z"/>
<path d="M2378 830 c-32 -5 -80 -19 -107 -31 -51 -21 -89 -53 -74 -62 4 -2 54
0 109 6 112 11 180 3 198 -25 14 -22 -6 -117 -44 -212 -35 -88 -25 -105 29
-52 51 50 98 143 116 234 19 90 13 118 -28 131 -50 16 -137 20 -199 11z m183
-40 c14 -8 19 -21 19 -50 0 -47 -36 -158 -57 -180 -14 -13 -14 -13 -5 5 18 35
26 140 12 164 -16 31 -69 51 -137 52 -42 0 -52 3 -38 9 29 12 183 12 206 0z"/>
<path d="M384 779 c-16 -26 212 -190 381 -274 395 -196 840 -225 1270 -81 174
59 385 176 385 215 0 34 -35 34 -132 -3 -427 -159 -873 -183 -1318 -71 -168
42 -357 116 -493 192 -63 35 -82 40 -93 22z m288 -148 c217 -86 441 -142 640
-158 51 -4 166 -7 255 -6 252 3 450 42 773 151 8 2 -1 -8 -20 -22 -57 -45
-185 -105 -309 -146 -418 -138 -878 -104 -1259 95 -88 47 -226 135 -210 135 3
0 61 -22 130 -49z"/>
</g>
</svg>
