<?xml version="1.0" standalone="no"?>
<!DOCTYPE svg PUBLIC "-//W3C//DTD SVG 20010904//EN"
 "http://www.w3.org/TR/2001/REC-SVG-20010904/DTD/svg10.dtd">
<svg version="1.0" xmlns="http://www.w3.org/2000/svg"
 width="300.000000pt" height="96.000000pt" viewBox="0 0 300.000000 96.000000"
 preserveAspectRatio="xMidYMid meet">
<metadata>
Created by potrace 1.10, written by Peter Selinger 2001-2011
</metadata>
<g transform="translate(0.000000,96.000000) scale(0.100000,-0.100000)"
fill="#000000" stroke="none">
<path d="M550 899 c-99 -17 -165 -62 -205 -139 -13 -25 -46 -70 -75 -100 -159
-171 -142 -391 38 -498 42 -24 57 -27 137 -27 66 0 99 5 125 18 56 27 111 87
141 152 l27 60 21 -45 c11 -25 21 -50 21 -57 0 -6 12 -25 26 -42 19 -23 34
-31 59 -31 40 0 67 25 95 88 10 23 21 42 24 42 3 0 18 -18 33 -41 14 -22 47
-52 72 -67 38 -22 58 -27 113 -26 59 0 74 4 112 31 l44 31 26 -29 c33 -37 83
-40 114 -6 19 20 22 35 22 104 0 83 11 133 30 133 6 0 10 -36 10 -92 0 -123
17 -162 75 -166 34 -2 45 2 69 27 l28 29 45 -31 c39 -28 52 -32 111 -32 76 1
109 15 163 69 l36 36 45 -43 c55 -53 116 -73 185 -61 26 5 68 7 93 5 33 -2 52
3 71 17 24 20 25 20 49 1 35 -26 82 -24 108 4 20 21 22 34 22 126 0 101 1 104
31 139 26 29 30 40 24 66 -8 35 -8 49 0 91 9 42 -25 85 -66 85 -47 0 -98 -26
-117 -61 -29 -52 -48 -73 -61 -65 -11 7 -147 17 -214 16 -44 -1 -89 -24 -127
-64 -19 -20 -39 -36 -45 -36 -6 0 -21 13 -33 29 -25 34 -94 70 -143 74 -44 4
-111 -15 -145 -42 -15 -11 -31 -21 -35 -21 -5 0 -9 25 -9 56 0 67 -10 89 -50
103 -48 16 -100 -12 -100 -55 0 -41 -25 -54 -98 -53 -60 2 -68 -1 -88 -25 -26
-30 -37 -32 -53 -12 -38 46 -153 62 -222 31 -34 -16 -44 -17 -61 -6 -59 37
-116 14 -147 -58 -12 -28 -25 -51 -29 -51 -5 0 -14 15 -20 34 -29 80 -77 107
-142 80 -33 -14 -36 -14 -53 8 -19 22 -19 23 5 37 36 23 142 136 163 175 18
34 18 36 1 55 -33 37 -154 50 -276 30z m255 -47 c11 -6 15 -12 8 -12 -7 0 -37
-32 -68 -70 -71 -89 -117 -115 -193 -107 -30 3 -57 9 -61 12 -9 10 23 31 123
81 48 25 86 47 83 50 -8 9 -160 -54 -223 -92 -187 -112 -255 -288 -157 -405
35 -41 74 -59 129 -59 153 0 222 184 105 283 -57 48 -144 48 -201 1 -16 -14
-30 -21 -30 -15 0 15 120 141 134 141 37 0 117 -34 154 -66 61 -52 86 -105 86
-184 0 -215 -255 -327 -416 -182 -54 49 -78 102 -78 178 0 104 51 204 131 260
27 19 39 34 39 51 0 54 65 114 151 138 63 17 252 16 284 -3z m1875 -202 c0
-32 -4 -40 -18 -40 -19 0 -42 -18 -42 -32 0 -4 14 -8 30 -8 28 0 30 -2 30 -38
0 -37 -1 -38 -31 -34 l-30 4 3 -136 3 -136 -41 0 -41 0 5 135 5 135 -27 0
c-23 0 -26 4 -26 35 0 27 4 35 18 35 13 0 22 12 30 39 15 48 32 63 85 72 23 3
43 7 45 8 1 0 2 -17 2 -39z m-1000 -195 l0 -225 -40 0 -40 0 0 225 0 225 40 0
40 0 0 -225z m-422 110 c68 -29 104 -76 117 -152 l7 -43 -141 0 c-82 0 -141
-4 -141 -9 0 -6 11 -23 24 -38 32 -37 102 -40 138 -5 16 14 37 22 61 22 44 0
46 -11 13 -55 -74 -96 -231 -84 -293 23 -21 36 -25 52 -21 101 5 72 40 124
102 152 50 23 85 24 134 4z m722 -10 c47 -24 82 -79 88 -135 l5 -50 -142 0
-142 0 16 -30 c21 -41 78 -58 128 -36 20 8 37 20 37 25 0 6 20 11 45 11 25 0
45 -4 45 -10 0 -16 -61 -80 -91 -96 -37 -19 -113 -18 -155 2 -76 36 -116 123
-95 204 14 52 68 112 114 128 39 13 108 7 147 -13z m382 -5 c28 -21 28 -21 28
0 0 17 6 20 40 20 l40 0 0 -172 0 -173 -40 0 c-35 0 -40 3 -40 24 l0 23 -18
-22 c-20 -24 -81 -36 -136 -26 -50 10 -111 70 -126 125 -24 90 30 195 113 220
45 14 105 6 139 -19z m-1533 -92 c20 -59 38 -108 41 -108 3 0 23 50 44 110
l38 110 44 0 43 0 -68 -167 -68 -168 -34 -3 c-34 -3 -34 -3 -64 75 -16 43 -46
120 -66 171 l-37 93 46 -3 45 -3 36 -107z m651 90 l0 -21 23 21 c13 12 33 22
45 22 18 0 22 -6 22 -34 0 -30 -4 -36 -34 -46 -19 -6 -37 -18 -40 -26 -3 -9
-6 -65 -6 -125 l0 -109 -45 0 -45 0 0 170 0 170 40 0 c34 0 40 -3 40 -22z
m-956 -49 c58 -51 61 -126 6 -180 -23 -24 -37 -29 -75 -29 -25 0 -58 6 -73 14
-53 27 -90 132 -63 175 13 21 90 50 133 50 28 1 46 -7 72 -30z"/>
<path d="M1126 474 c-14 -15 -26 -29 -26 -33 0 -3 43 -6 95 -6 52 0 95 4 95 8
0 4 -11 19 -25 32 -35 36 -102 35 -139 -1z"/>
<path d="M1826 479 c-46 -36 -34 -44 64 -44 97 0 106 6 67 43 -31 29 -95 30
-131 1z"/>
<path d="M2238 484 c-86 -46 -50 -184 47 -184 51 0 95 44 95 95 0 29 -8 45
-34 71 -37 37 -65 42 -108 18z m86 -50 c33 -32 5 -94 -43 -94 -40 0 -68 69
-39 98 17 17 64 15 82 -4z"/>
</g>
</svg>
