<?xml version="1.0" standalone="no"?>
<!DOCTYPE svg PUBLIC "-//W3C//DTD SVG 20010904//EN"
 "http://www.w3.org/TR/2001/REC-SVG-20010904/DTD/svg10.dtd">
<svg version="1.0" xmlns="http://www.w3.org/2000/svg"
 width="200.000000pt" height="200.000000pt" viewBox="0 0 200.000000 200.000000"
 preserveAspectRatio="xMidYMid meet">
<metadata>
Created by potrace 1.10, written by Peter Selinger 2001-2011
</metadata>
<g transform="translate(0.000000,200.000000) scale(0.100000,-0.100000)"
fill="#000000" stroke="none">
<path d="M0 1405 c0 -13 118 -15 1000 -15 882 0 1000 2 1000 15 0 13 -118 15
-1000 15 -882 0 -1000 -2 -1000 -15z"/>
<path d="M223 1108 c-133 -131 -141 -143 -119 -167 12 -13 15 -29 10 -63 -5
-38 -3 -49 15 -67 20 -20 31 -21 189 -21 92 0 172 4 178 8 30 19 35 56 33 210
-3 148 -4 158 -25 179 -25 25 -54 29 -85 12 -16 -8 -25 -7 -38 5 -10 9 -24 16
-31 16 -7 0 -64 -51 -127 -112z m26 -44 c-118 -118 -139 -136 -139 -115 0 15
255 261 259 249 2 -5 -52 -66 -120 -134z m249 -66 l2 -178 -180 0 -180 0 0 40
c0 39 1 40 35 40 33 0 35 2 35 35 0 33 2 35 36 35 34 0 35 1 32 33 -3 30 -1
32 35 35 35 3 37 5 37 38 0 32 2 34 35 34 33 0 35 2 29 24 -9 36 3 47 44 44
l37 -3 3 -177z"/>
<path d="M651 1114 c-18 -22 -21 -41 -21 -113 0 -106 5 -125 36 -141 20 -11
27 -11 42 3 16 15 21 15 38 2 30 -22 117 -19 139 5 23 25 30 25 55 0 27 -27
52 -25 80 5 l23 24 32 -24 c24 -19 44 -25 81 -25 28 0 55 5 60 10 8 8 19 7 37
-1 21 -9 30 -9 41 0 11 9 20 10 35 2 27 -15 93 -17 116 -4 13 7 26 8 41 1 15
-7 28 -7 40 0 12 7 23 6 36 -1 29 -19 52 3 63 62 6 28 15 52 20 53 19 2 44
-66 43 -114 -3 -90 50 -105 92 -26 34 63 34 63 70 36 l32 -23 20 25 c18 22 19
35 15 134 -5 112 -11 126 -50 126 -12 0 -23 -12 -30 -30 -6 -16 -16 -30 -21
-30 -6 0 -22 -12 -37 -26 l-27 -25 -25 25 c-15 14 -32 26 -39 26 -8 0 -18 15
-23 33 -8 27 -15 33 -43 35 -39 4 -55 -8 -89 -62 -23 -36 -24 -42 -12 -78 15
-47 4 -63 -31 -45 -20 10 -25 21 -25 48 0 58 -19 72 -87 66 -56 -5 -57 -5 -63
24 -9 40 -41 56 -65 34 -10 -9 -21 -26 -24 -39 -5 -20 -12 -22 -68 -23 -35 0
-70 -2 -78 -3 -8 -1 -22 1 -31 4 -11 5 -27 -2 -45 -18 l-29 -25 -23 22 c-17
16 -38 22 -85 24 -34 2 -66 4 -72 4 -5 1 -22 -2 -37 -6 -22 -6 -28 -4 -28 9 0
23 -30 66 -45 66 -8 0 -23 -12 -34 -26z m44 -120 c0 -99 -3 -119 -15 -119 -12
0 -16 20 -18 109 -3 117 1 140 21 133 9 -3 12 -36 12 -123z m590 0 c0 -99 -3
-119 -15 -119 -12 0 -16 19 -18 100 -3 110 2 149 21 142 8 -2 12 -38 12 -123z
m349 120 c25 -10 19 -34 -9 -34 -18 0 -25 -5 -25 -20 0 -15 7 -20 25 -20 16 0
25 -6 25 -15 0 -9 -9 -15 -25 -15 -23 0 -24 -3 -27 -67 -2 -53 -6 -68 -18 -68
-11 0 -16 15 -18 65 -2 44 -8 67 -18 73 -18 10 -18 27 1 27 8 0 15 9 15 20 0
20 32 60 49 60 5 0 16 -3 25 -6z m256 -24 c0 -11 -6 -20 -14 -20 -18 0 -29 16
-21 30 11 18 35 11 35 -10z m-1029 -69 c30 -30 39 -70 17 -72 -7 0 -34 0 -60
1 -37 1 -48 -2 -48 -14 0 -20 34 -29 77 -21 30 5 34 4 31 -12 -5 -26 -67 -40
-104 -22 -76 37 -46 168 39 169 10 0 32 -13 48 -29z m93 -40 c10 -28 22 -49
26 -46 5 3 16 28 25 55 18 53 31 68 46 53 6 -6 -2 -38 -21 -84 -37 -88 -45
-98 -64 -79 -23 25 -69 138 -62 156 9 25 29 4 50 -55z m234 53 c29 -20 47 -63
33 -77 -6 -6 -36 -9 -67 -8 -54 2 -55 2 -44 -20 11 -19 18 -21 61 -16 39 5 49
3 49 -9 0 -20 -48 -37 -87 -29 -39 7 -63 38 -63 83 0 75 63 115 118 76z m250
6 c8 0 12 -8 10 -17 -2 -12 -14 -17 -42 -17 -49 -1 -58 -21 -13 -30 67 -12 86
-73 32 -98 -26 -12 -91 -3 -101 13 -11 19 11 30 39 20 28 -11 57 -5 57 10 0 5
-8 12 -17 15 -77 25 -91 40 -72 75 13 24 47 40 74 34 11 -3 26 -5 33 -5z m288
-56 c10 -29 21 -54 24 -54 3 0 14 22 24 49 21 59 42 82 52 56 4 -9 2 -26 -5
-38 -6 -12 -26 -60 -45 -107 -20 -51 -41 -86 -50 -88 -19 -4 -21 17 -5 50 8
19 4 37 -21 97 -17 40 -29 79 -26 87 10 26 33 3 52 -52z m162 -30 c-2 -62 -6
-79 -18 -79 -20 0 -27 139 -9 161 21 26 30 -1 27 -82z m-360 -57 c4 -20 -25
-34 -40 -19 -15 15 -1 44 19 40 10 -2 19 -11 21 -21z"/>
<path d="M788 1009 c-30 -17 -20 -29 22 -29 43 0 52 13 21 30 -23 12 -22 12
-43 -1z"/>
<path d="M1119 1000 l-24 -19 48 -1 c52 0 54 2 31 24 -20 21 -27 20 -55 -4z"/>
<path d="M0 595 c0 -13 118 -15 1000 -15 882 0 1000 2 1000 15 0 13 -118 15
-1000 15 -882 0 -1000 -2 -1000 -15z"/>
</g>
</svg>
