 <svg  version="1.0" xmlns="http://www.w3.org/2000/svg"  width="67.000000pt" height="89.000000pt" viewBox="0 0 67.000000 89.000000"  preserveAspectRatio="xMidYMid meet">  <g transform="translate(0.000000,89.000000) scale(0.050000,-0.050000)" fill="#000000" stroke="none"> <path d="M20 1735 c3 -124 124 -490 179 -540 47 -42 61 -72 62 -130 0 -41 12 -97 27 -123 l27 -49 25 49 c71 138 160 171 269 99 52 -35 64 -36 114 -10 113 59 233 17 268 -94 22 -68 69 8 69 111 0 65 14 94 70 152 65 67 216 521 183 553 -5 5 -65 -19 -133 -53 l-125 -63 9 -118 c5 -66 7 -119 5 -119 -2 0 -57 25 -122 55 -174 81 -390 79 -563 -7 l-124 -61 0 132 0 133 -110 54 c-127 62 -130 63 -130 29z m873 -430 c23 -14 54 -24 67 -21 14 3 30 -7 35 -24 6 -16 3 -23 -5 -15 -9 8 -28 -2 -42 -22 -20 -29 -61 -40 -169 -48 -78 -5 -152 -20 -164 -32 -30 -30 -195 -30 -195 0 0 12 -16 35 -35 51 -23 19 -24 24 -5 16 17 -8 8 5 -20 28 -49 40 -49 41 -6 42 24 0 49 9 56 20 7 12 21 16 31 9 10 -6 35 -2 54 10 49 30 345 20 398 -14z"/> <path d="M420 972 c0 -102 144 -108 156 -6 6 51 2 54 -75 54 -72 0 -81 -5 -81 -48z"/> <path d="M814 987 c-29 -28 -13 -67 27 -67 28 0 40 11 35 33 -7 37 -41 56 -62 34z"/> <path d="M1048 869 c-8 -30 -3 -85 10 -121 19 -53 19 -76 -2 -112 -24 -42 -27 -33 -36 93 l-10 140 -38 -59 c-38 -58 -38 -61 6 -231 44 -168 36 -279 -20 -279 -26 0 -58 138 -71 306 -10 124 -21 160 -51 176 -32 17 -36 14 -27 -26 5 -25 24 -127 41 -226 17 -99 36 -205 42 -235 10 -51 3 -60 -100 -107 -117 -53 -143 -52 -277 8 -88 40 -86 21 -32 325 23 132 37 246 31 252 -28 27 -50 -22 -62 -138 -17 -160 -54 -335 -72 -335 -58 0 -67 108 -24 272 43 163 43 171 9 233 l-35 65 -5 -100 c-8 -153 -22 -198 -52 -172 -20 16 -22 49 -7 143 30 187 -10 193 -63 10 l-44 -150 70 -138 c38 -76 63 -144 56 -151 -22 -22 185 -201 291 -250 l101 -47 107 60 c114 65 269 201 261 230 -3 9 25 79 62 155 l69 139 -44 149 c-50 175 -65 197 -84 121z"/> <path d="M624 735 c4 -30 20 -45 46 -45 26 0 42 15 46 45 6 37 -3 45 -46 45 -43 0 -52 -8 -46 -45z"/> </g> </svg> 