<?xml version="1.0" standalone="no"?>
<!DOCTYPE svg PUBLIC "-//W3C//DTD SVG 20010904//EN"
 "http://www.w3.org/TR/2001/REC-SVG-20010904/DTD/svg10.dtd">
<svg version="1.0" xmlns="http://www.w3.org/2000/svg"
 width="300.000000pt" height="169.000000pt" viewBox="0 0 300.000000 169.000000"
 preserveAspectRatio="xMidYMid meet">
<metadata>
Created by potrace 1.10, written by Peter Selinger 2001-2011
</metadata>
<g transform="translate(0.000000,169.000000) scale(0.100000,-0.100000)"
fill="#000000" stroke="none">
<path d="M142 855 l3 -296 588 -2 587 -2 0 298 0 297 -590 0 -590 0 2 -295z
m1128 -5 l0 -240 -535 0 -535 0 0 240 0 240 535 0 535 0 0 -240z"/>
<path d="M900 892 c0 -122 -2 -141 -18 -155 -41 -37 -82 -5 -82 62 0 55 15 81
45 81 20 0 25 5 25 25 0 21 -5 25 -31 25 -17 0 -39 -5 -51 -11 -46 -24 -63
-134 -30 -199 22 -45 77 -62 116 -36 14 9 26 12 26 6 0 -5 14 -10 30 -10 l30
0 0 175 0 175 -30 0 -30 0 0 -138z"/>
<path d="M303 918 c-58 -28 -71 -164 -21 -214 35 -36 93 -41 137 -14 l35 22
-25 18 c-21 16 -26 17 -40 4 -40 -36 -79 -4 -79 66 0 69 31 96 81 70 14 -8 25
-7 40 3 20 15 20 15 -7 36 -29 23 -84 27 -121 9z"/>
<path d="M527 910 c-48 -38 -60 -139 -22 -196 33 -50 122 -55 165 -9 29 30 39
119 20 165 -24 58 -113 79 -163 40z m101 -42 c18 -18 15 -113 -4 -132 -38 -38
-84 -1 -84 68 0 62 52 100 88 64z"/>
<path d="M1053 918 c-57 -27 -71 -162 -23 -213 29 -31 78 -41 124 -25 49 16
64 37 40 54 -16 12 -22 12 -38 0 -51 -35 -101 0 -101 71 0 50 18 75 54 75 31
0 51 -16 51 -42 0 -16 -7 -18 -37 -16 -33 3 -38 0 -41 -19 -3 -22 0 -23 67
-23 79 0 80 1 61 72 -19 67 -92 97 -157 66z"/>
<path d="M1999 1028 c0 -2 -1 -65 -2 -141 -2 -124 -4 -140 -21 -153 -40 -29
-75 -6 -83 54 -7 52 16 92 52 92 20 0 25 5 25 25 0 22 -4 25 -37 25 -68 -1
-93 -37 -93 -135 0 -60 3 -69 29 -96 33 -33 74 -38 109 -13 12 8 22 10 22 5 0
-6 11 -11 25 -11 l25 0 0 175 0 175 -25 0 c-14 0 -25 -1 -26 -2z"/>
<path d="M1407 910 c-53 -42 -60 -152 -12 -208 20 -23 31 -27 73 -27 35 0 56
6 71 19 20 18 20 21 5 37 -15 16 -19 17 -37 4 -12 -8 -29 -15 -39 -15 -44 0
-67 110 -30 143 21 19 53 22 69 6 8 -8 17 -8 32 0 28 15 27 23 -8 44 -39 23
-92 22 -124 -3z"/>
<path d="M1628 919 c-24 -9 -26 -13 -16 -34 9 -20 14 -22 30 -14 10 6 36 9 56
7 l37 -3 3 -63 c2 -38 -2 -69 -9 -78 -16 -20 -75 -18 -83 2 -9 22 11 44 40 44
19 0 24 5 24 25 0 14 -6 25 -12 25 -33 0 -89 -23 -98 -40 -40 -75 48 -153 118
-104 12 8 22 10 22 5 0 -6 14 -11 31 -11 24 0 30 3 25 16 -3 9 -6 55 -6 103 0
110 -8 123 -81 127 -30 2 -66 -1 -81 -7z"/>
<path d="M2141 914 c-47 -33 -64 -114 -37 -179 27 -64 114 -83 180 -40 27 18
27 19 8 37 -18 18 -20 18 -50 1 -29 -16 -34 -17 -59 -3 -24 14 -28 23 -31 69
-4 60 9 81 47 81 31 0 51 -16 51 -42 0 -16 -5 -18 -35 -12 -33 6 -35 5 -35
-20 0 -25 1 -26 66 -26 l67 0 -6 47 c-9 86 -100 133 -166 87z"/>
<path d="M2350 805 l0 -125 30 0 30 0 0 88 c0 93 8 112 45 112 37 0 45 -19 45
-112 l0 -88 30 0 30 0 0 88 c0 93 8 112 45 112 37 0 45 -19 45 -112 l0 -88 31
0 31 0 -4 101 c-3 96 -4 102 -31 125 -33 28 -82 32 -115 8 -21 -15 -25 -15
-41 0 -20 18 -63 21 -91 6 -13 -7 -21 -7 -25 0 -3 5 -17 10 -31 10 l-24 0 0
-125z"/>
<path d="M2740 927 c0 -2 20 -55 45 -118 25 -63 45 -121 45 -129 0 -21 -20
-40 -42 -40 -13 0 -18 -8 -18 -31 0 -30 1 -31 33 -25 17 3 39 16 48 27 13 18
119 295 119 313 0 4 -12 6 -27 4 -29 -3 -31 -9 -78 -153 -5 -15 -14 2 -35 65
-27 81 -30 85 -59 88 -17 2 -31 1 -31 -1z"/>
<path d="M1370 583 l0 -28 90 0 90 0 0 28 0 27 -90 0 -90 0 0 -27z"/>
</g>
</svg>
