<?xml version="1.0" standalone="no"?>
<!DOCTYPE svg PUBLIC "-//W3C//DTD SVG 20010904//EN"
 "http://www.w3.org/TR/2001/REC-SVG-20010904/DTD/svg10.dtd">
<svg version="1.0" xmlns="http://www.w3.org/2000/svg"
 width="200.000000pt" height="200.000000pt" viewBox="0 0 200.000000 200.000000"
 preserveAspectRatio="xMidYMid meet">
<metadata>
Created by potrace 1.10, written by Peter Selinger 2001-2011
</metadata>
<g transform="translate(0.000000,200.000000) scale(0.100000,-0.100000)"
fill="#000000" stroke="none">
<path d="M306 1895 c-61 -22 -88 -46 -118 -105 l-28 -54 0 -619 c0 -461 3
-630 12 -661 18 -59 83 -120 145 -136 49 -13 50 -14 63 -63 16 -62 77 -127
136 -145 59 -17 1109 -17 1168 0 53 16 118 81 134 134 9 31 12 199 12 660 l0
619 -25 52 c-28 62 -97 113 -152 113 -28 0 -33 4 -33 23 0 13 -12 48 -27 78
-21 40 -40 61 -77 84 l-49 30 -561 2 c-464 2 -568 0 -600 -12z m1182 -100 c29
-24 60 -81 50 -91 -3 -2 -225 -4 -492 -4 -527 0 -538 -1 -602 -53 -76 -63 -74
-42 -74 -684 0 -629 4 -594 -61 -550 -71 47 -69 23 -69 695 0 654 -1 646 55
690 28 22 28 22 596 22 l567 0 30 -25z m105 -99 c9 -13 23 -31 32 -40 9 -9 12
-16 5 -16 -6 0 -19 -8 -28 -17 -15 -15 -17 -71 -22 -593 -5 -615 -3 -589 -53
-630 -10 -8 -27 -23 -39 -32 -18 -16 -63 -17 -509 -18 -272 0 -499 -4 -513
-10 -13 -5 -27 -14 -31 -19 -11 -19 -39 -11 -58 14 -12 16 -14 25 -6 25 7 0 9
3 6 7 -4 3 1 12 11 19 16 11 17 56 22 581 6 626 2 596 69 656 17 15 31 24 31
21 0 -4 6 -2 13 4 9 8 167 11 506 12 486 0 494 1 523 22 23 16 27 23 16 29 -8
5 -9 9 -2 9 7 0 19 -11 27 -24z m110 -113 c47 -42 47 -46 47 -685 0 -666 2
-645 -63 -692 -28 -21 -38 -21 -586 -21 -520 0 -559 1 -584 18 -29 19 -67 73
-67 95 0 9 107 12 500 12 546 0 541 0 604 58 16 15 37 45 47 67 17 37 19 77
19 612 l0 572 31 -9 c18 -5 41 -17 52 -27z"/>
<path d="M513 1588 c-18 -13 -36 -30 -40 -38 -5 -8 -10 -270 -13 -583 l-5
-567 495 0 c528 1 519 0 559 51 20 26 21 38 23 593 l3 566 -495 0 -495 0 -32
-22z m997 -551 c0 -490 -2 -555 -16 -575 -19 -28 -58 -45 -101 -44 -18 0 -230
1 -471 1 l-439 1 -7 533 c-5 372 -4 542 4 563 6 16 23 39 38 51 l27 23 483 0
482 0 0 -553z"/>
<path d="M796 1274 c-9 -8 -16 -12 -16 -8 0 16 -32 -22 -46 -55 -27 -61 -30
-66 -55 -69 -13 -2 -34 -13 -46 -25 -44 -40 -19 -112 41 -123 43 -7 46 -11 46
-54 0 -54 -8 -70 -36 -70 -58 0 -87 -86 -41 -125 19 -18 38 -20 156 -22 105
-1 139 2 157 14 23 15 40 48 36 70 -2 7 15 -5 36 -27 48 -49 81 -62 162 -63
157 0 238 116 161 231 l-29 43 24 26 c31 33 30 48 -4 83 -71 71 -215 66 -293
-9 -21 -21 -39 -38 -40 -37 0 0 -2 10 -4 20 -2 11 -13 32 -24 47 l-21 28 22
20 c28 26 28 71 0 99 -19 19 -33 22 -96 22 -54 0 -79 -4 -90 -16z m174 -60 l0
-37 -65 5 -65 6 0 -44 0 -44 65 0 65 0 0 -36 0 -36 -65 4 -65 4 0 -103 0 -103
55 0 55 0 0 -35 0 -35 -150 0 -150 0 0 35 0 35 55 0 55 0 0 103 0 104 -55 -5
-55 -4 0 36 0 36 55 0 55 0 0 50 c0 41 5 56 25 75 22 22 32 25 105 25 l80 0 0
-36z m305 -117 c17 -7 39 -17 50 -24 20 -11 20 -12 -4 -37 l-23 -25 -37 20
c-61 33 -131 18 -131 -27 0 -16 39 -34 73 -34 38 0 92 -19 115 -40 35 -33 31
-98 -9 -136 -27 -26 -38 -29 -107 -32 -66 -3 -83 0 -121 20 -54 29 -58 38 -26
61 23 17 25 16 57 -3 40 -24 120 -27 138 -5 27 32 8 49 -75 66 -110 23 -145
66 -115 144 20 52 140 81 215 52z m-264 -74 c4 -54 13 -81 30 -99 l21 -22 -35
-38 -34 -38 -28 22 c-15 12 -38 22 -51 22 -27 0 -37 27 -32 81 3 31 7 34 45
42 23 4 47 14 53 22 13 16 30 20 31 8z"/>
</g>
</svg>
