<?xml version="1.0" standalone="no"?>
<!DOCTYPE svg PUBLIC "-//W3C//DTD SVG 20010904//EN"
 "http://www.w3.org/TR/2001/REC-SVG-20010904/DTD/svg10.dtd">
<svg version="1.0" xmlns="http://www.w3.org/2000/svg"
 width="300.000000pt" height="95.000000pt" viewBox="0 0 300.000000 95.000000"
 preserveAspectRatio="xMidYMid meet">
<metadata>
Created by potrace 1.10, written by Peter Selinger 2001-2011
</metadata>
<g transform="translate(0.000000,95.000000) scale(0.100000,-0.100000)"
fill="#000000" stroke="none">
<path d="M129 708 c-23 -40 -61 -106 -85 -147 l-43 -74 30 -51 c16 -28 53 -93
82 -143 48 -85 54 -93 82 -92 29 0 29 1 8 11 -12 6 -57 69 -99 140 l-77 130
21 41 c54 103 124 214 149 234 l28 23 -27 0 c-23 0 -33 -11 -69 -72z"/>
<path d="M168 633 l-85 -147 63 -106 c34 -58 70 -123 80 -143 l18 -37 1257 0
1257 0 81 140 c45 77 81 143 81 146 0 3 -37 70 -81 150 l-82 144 -1252 0
-1252 0 -85 -147z m2644 -13 c37 -63 68 -123 68 -132 0 -23 -107 -208 -136
-235 l-24 -22 -1218 0 c-1376 0 -1235 -9 -1285 85 -14 28 -42 77 -62 109 l-35
59 42 75 c22 42 56 100 74 129 l34 52 1237 -2 1238 -3 67 -115z"/>
<path d="M1804 688 c-22 -10 -53 -35 -70 -55 l-30 -36 -24 33 c-35 50 -90 70
-191 70 -73 0 -90 -3 -113 -21 l-27 -21 -23 21 c-26 24 -72 27 -102 6 -12 -7
-31 -41 -43 -75 -12 -33 -26 -58 -30 -55 -5 2 -14 25 -21 50 -24 85 -83 118
-139 79 -22 -16 -25 -16 -51 0 -21 12 -54 16 -137 16 -102 0 -111 -2 -131 -23
-13 -14 -22 -36 -22 -54 0 -62 -10 -65 -43 -15 -46 68 -99 92 -202 92 -72 0
-84 -3 -103 -23 -21 -22 -22 -32 -22 -194 l0 -172 27 -21 c25 -20 36 -22 106
-16 98 7 150 33 194 99 l32 47 6 -54 c11 -83 24 -91 160 -93 101 -2 116 0 139
18 55 43 18 129 -55 129 -34 0 -34 2 -13 36 11 16 15 36 11 58 -5 31 -3 34 34
50 21 10 39 22 39 28 0 7 5 7 14 -1 7 -6 32 -68 56 -137 47 -138 71 -175 115
-180 59 -6 80 22 133 177 16 47 39 105 50 130 l20 44 1 -151 c1 -143 2 -152
24 -171 54 -50 103 -32 122 44 10 39 17 49 36 51 53 6 109 25 125 43 25 27 30
24 44 -28 40 -140 202 -191 303 -95 39 37 49 57 62 125 l10 58 29 -24 29 -25
-35 -31 c-38 -33 -42 -53 -17 -89 41 -58 166 -81 239 -44 83 41 106 145 49
215 l-31 38 22 24 c20 21 25 22 44 11 11 -8 33 -16 49 -20 l27 -6 0 -113 c0
-100 2 -116 20 -135 12 -12 26 -23 33 -23 30 -3 54 4 72 22 17 17 21 35 23
127 4 109 11 132 41 132 29 0 63 44 58 76 -7 53 -38 65 -177 65 -118 -1 -125
-2 -149 -25 l-26 -25 -42 24 c-50 30 -94 37 -148 23 -44 -11 -92 -50 -106 -85
-11 -30 -23 -29 -43 2 -54 82 -150 113 -232 73z m-1279 -47 c53 -30 75 -75 75
-151 0 -82 -24 -124 -90 -157 -34 -18 -61 -23 -120 -23 l-75 0 2 177 c1 98 2
178 2 178 97 0 181 -10 206 -24z m405 -14 l0 -38 -87 2 -88 2 -3 -33 -3 -33
55 5 56 5 0 -40 0 -39 -52 4 -52 3 -2 -42 -2 -43 94 0 94 0 0 -35 0 -35 -130
0 -130 0 0 178 0 177 125 0 125 0 0 -38z m185 -95 l41 -131 39 131 40 130 42
3 c42 3 42 3 31 -23 -5 -15 -30 -83 -55 -152 -25 -69 -50 -138 -55 -153 -9
-24 -15 -28 -45 -25 l-35 3 -64 175 c-35 96 -63 176 -64 177 0 1 19 0 42 -2
l43 -3 40 -130z m396 128 c83 0 91 -2 119 -27 36 -32 49 -93 28 -132 -25 -47
-62 -65 -133 -63 l-65 1 0 -65 0 -64 -35 0 -35 0 0 181 c0 161 2 180 16 175 9
-3 56 -6 105 -6z m439 -8 c19 -9 45 -35 58 -57 19 -34 22 -52 20 -117 -3 -82
-17 -111 -71 -152 -37 -27 -117 -27 -154 0 -63 48 -86 112 -71 207 17 112 120
169 218 119z m360 -2 c51 -26 54 -33 26 -59 -23 -21 -26 -22 -54 -7 -53 27
-108 17 -100 -19 2 -12 25 -25 73 -40 81 -27 115 -59 115 -110 0 -91 -129
-141 -231 -89 -46 23 -52 38 -24 64 19 18 27 21 39 11 41 -34 118 -34 136 -1
14 26 -9 46 -70 59 -66 14 -97 35 -110 76 -32 98 92 170 200 115z m380 -23 l0
-39 -50 4 -50 3 0 -142 0 -143 -35 0 -35 0 0 143 0 142 -50 -3 -50 -4 0 39 0
38 135 0 135 0 0 -38z"/>
<path d="M390 488 l0 -111 45 6 c25 2 55 13 65 22 40 36 38 143 -3 169 -12 7
-41 16 -64 19 l-43 5 0 -110z m90 43 c16 -32 12 -76 -10 -96 -33 -30 -57 14
-44 83 7 37 37 44 54 13z"/>
<path d="M1460 550 l0 -50 46 0 c61 0 84 14 84 51 0 33 -4 35 -77 43 l-53 5 0
-49z"/>
<path d="M1830 580 c-25 -25 -34 -60 -27 -116 6 -59 30 -84 77 -84 56 0 75 27
75 105 0 53 -4 68 -24 89 -30 31 -73 34 -101 6z m75 -44 c35 -52 1 -137 -42
-110 -25 15 -30 96 -8 118 22 22 32 20 50 -8z"/>
<path d="M2790 771 c0 -5 8 -11 19 -14 10 -2 38 -38 61 -78 23 -41 59 -100 80
-132 l38 -59 -32 -49 c-17 -27 -53 -87 -81 -134 -32 -56 -58 -88 -75 -95 -23
-9 -23 -9 10 -7 33 2 37 7 112 137 43 74 78 140 78 145 0 6 -36 75 -81 153
-69 121 -84 142 -105 142 -13 0 -24 -4 -24 -9z"/>
</g>
</svg>
