<?xml version="1.0" standalone="no"?>
<!DOCTYPE svg PUBLIC "-//W3C//DTD SVG 20010904//EN"
 "http://www.w3.org/TR/2001/REC-SVG-20010904/DTD/svg10.dtd">
<svg version="1.0" xmlns="http://www.w3.org/2000/svg"
 width="148.000000pt" height="142.000000pt" viewBox="0 0 148.000000 142.000000"
 preserveAspectRatio="xMidYMid meet">
<metadata>
Created by potrace 1.10, written by Peter Selinger 2001-2011
</metadata>
<g transform="translate(0.000000,142.000000) scale(0.100000,-0.100000)"
fill="#000000" stroke="none">
<path d="M66 1328 c-14 -20 -16 -94 -16 -610 l0 -587 22 -21 c21 -20 32 -20
610 -20 575 0 588 0 608 20 20 20 20 33 20 608 0 516 -2 590 -16 610 l-15 22
-599 0 -599 0 -15 -22z m1214 -608 l0 -600 -600 0 -600 0 0 600 0 600 600 0
600 0 0 -600z"/>
<path d="M140 720 l0 -540 540 0 540 0 0 540 0 540 -540 0 -540 0 0 -540z
m1045 0 l0 -505 -505 0 -505 0 -3 485 c-1 267 0 495 3 508 l5 22 503 -2 502
-3 0 -505z"/>
<path d="M424 1039 c-23 -26 -15 -49 82 -230 l84 -157 0 -110 c0 -133 12 -157
79 -157 67 0 75 16 79 153 3 126 3 123 92 287 63 114 91 176 88 192 -8 40
-105 54 -145 22 -8 -8 -36 -55 -61 -106 -25 -51 -49 -93 -54 -93 -5 0 -28 42
-52 93 -24 51 -51 99 -60 106 -26 22 -112 22 -132 0z m177 -144 c35 -74 66
-135 69 -135 3 0 32 60 66 133 l61 132 57 3 c31 2 56 0 56 -3 0 -3 -43 -87
-96 -186 l-96 -180 1 -125 2 -124 -51 0 -50 0 0 124 0 125 -71 133 c-39 73
-84 157 -100 186 l-29 52 59 0 58 0 64 -135z"/>
</g>
</svg>
